<svg width="12" height="14" viewBox="0 0 12 14" fill="none" xmlns="http://www.w3.org/2000/svg">
<path d="M8.185 1.75H10.81C11.335 1.75 11.685 2.1 11.685 2.625V3.5H0.309998V2.625C0.309998 2.1 0.747498 1.75 1.185 1.75H3.81C3.985 0.7875 4.9475 0 5.9975 0C7.0475 0 8.01 0.7875 8.185 1.75ZM4.685 1.75H7.31C7.135 1.225 6.5225 0.875 5.9975 0.875C5.4725 0.875 4.86 1.225 4.685 1.75ZM1.185 4.375H10.81L10.0225 13.2125C10.0225 13.65 9.585 14 9.1475 14H2.8475C2.41 14 2.06 13.65 1.9725 13.2125L1.185 4.375Z" fill="#242424"/>
</svg>
